<svg width="107" height="39" viewBox="0 0 107 39" fill="none" xmlns="http://www.w3.org/2000/svg">
<path d="M31.9237 17.8999V4.89016H26.7651V0.285156H43.021V4.89016H37.8624V17.8999H31.9237Z" fill="#353535"/>
<path d="M72.1613 17.8999V0.285156H78.0999V13.2949H86.0517V17.8999H72.1613Z" fill="#353535"/>
<path d="M93.0017 14.1253L92.6746 7.60786L99.3178 0.285156H105.785L98.3364 8.4886L95.04 11.8606L93.0017 14.1253ZM87.6921 17.8999V0.285156H93.5301V17.8999H87.6921ZM99.2675 17.8999L94.0837 11.0553L97.9338 6.97876L106.137 17.8999H99.2675Z" fill="#353535"/>
<path d="M8.50215 37.6868C7.02586 37.6868 5.59991 37.5191 4.22428 37.1836C2.84865 36.848 1.71627 36.4119 0.827148 35.875L2.73961 31.5468C3.5784 32.0333 4.50947 32.4276 5.5328 32.7295C6.57291 33.0147 7.57947 33.1573 8.55247 33.1573C9.12286 33.1573 9.56742 33.1238 9.88616 33.0567C10.2217 32.9728 10.4649 32.8638 10.6159 32.7295C10.7669 32.5786 10.8424 32.4024 10.8424 32.2011C10.8424 31.8824 10.6662 31.6307 10.3139 31.4462C9.96165 31.2617 9.49193 31.1107 8.90477 30.9932C8.33439 30.859 7.70529 30.7248 7.01747 30.5906C6.32966 30.4396 5.63346 30.2467 4.92887 30.0118C4.24105 29.777 3.60357 29.4666 3.01641 29.0808C2.44603 28.6949 1.98469 28.1917 1.63239 27.5709C1.2801 26.9335 1.10395 26.145 1.10395 25.2055C1.10395 24.1151 1.40592 23.1253 2.00985 22.2362C2.63056 21.3303 3.54485 20.6089 4.75272 20.0721C5.97737 19.5353 7.49559 19.2668 9.30739 19.2668C10.4985 19.2668 11.6728 19.3927 12.8303 19.6443C13.9879 19.8959 15.028 20.2818 15.9507 20.8018L14.164 25.1049C13.2917 24.6687 12.4445 24.3416 11.6225 24.1235C10.8172 23.9054 10.0288 23.7964 9.25706 23.7964C8.68668 23.7964 8.23373 23.8467 7.89821 23.9473C7.56269 24.048 7.31944 24.1822 7.16846 24.35C7.03425 24.5177 6.96715 24.7023 6.96715 24.9036C6.96715 25.2055 7.14329 25.4488 7.49559 25.6333C7.84788 25.8011 8.30922 25.9437 8.87961 26.0611C9.46676 26.1785 10.1042 26.3044 10.7921 26.4386C11.4967 26.5728 12.1929 26.7573 12.8807 26.9922C13.5685 27.227 14.1976 27.5374 14.768 27.9232C15.3551 28.3091 15.8249 28.8124 16.1771 29.4331C16.5294 30.0538 16.7056 30.8255 16.7056 31.7482C16.7056 32.8218 16.3952 33.8116 15.7745 34.7175C15.1706 35.6066 14.2647 36.328 13.0568 36.8816C11.8489 37.4184 10.3307 37.6868 8.50215 37.6868Z" fill="#353535"/>
<path d="M32.0361 19.6695H37.9748V37.2842H32.0361V19.6695ZM26.5504 37.2842H20.6117V19.6695H26.5504V37.2842ZM32.4387 30.7919H26.1478V25.9101H32.4387V30.7919Z" fill="#353535"/>
<path d="M72.0247 37.2842V19.6695H80.505C82.149 19.6695 83.5666 19.9379 84.7577 20.4747C85.9656 21.0115 86.8966 21.7832 87.5509 22.7898C88.2052 23.7796 88.5323 24.9539 88.5323 26.3127C88.5323 27.6716 88.2052 28.8459 87.5509 29.8357C86.8966 30.8255 85.9656 31.5972 84.7577 32.1508C83.5666 32.6876 82.149 32.956 80.505 32.956H75.3212L77.9634 30.4145V37.2842H72.0247ZM77.9634 31.0687L75.3212 28.3762H80.1275C80.9496 28.3762 81.5535 28.1917 81.9393 27.8226C82.342 27.4535 82.5433 26.9502 82.5433 26.3127C82.5433 25.6753 82.342 25.172 81.9393 24.8029C81.5535 24.4338 80.9496 24.2493 80.1275 24.2493H75.3212L77.9634 21.5568V31.0687Z" fill="#353535"/>
<path d="M67.7625 3.68562C67.7664 1.83261 66.2674 0.327626 64.4143 0.32415L47.0074 0.291495C45.1544 0.288019 43.6491 1.78737 43.6452 3.64038L43.5797 34.8483C43.5758 36.7014 45.0748 38.2063 46.9279 38.2098L64.3348 38.2425C66.1878 38.2459 67.6931 36.7466 67.697 34.8936L67.7625 3.68562Z" fill="#353535"/>
<path fill-rule="evenodd" clip-rule="evenodd" d="M47.0041 1.87222L64.411 1.90487C65.391 1.90671 66.1838 2.70265 66.1818 3.68266L66.1163 34.8906C66.1142 35.8706 65.3181 36.6636 64.3381 36.6617L46.9312 36.6291C45.9512 36.6272 45.1584 35.8313 45.1604 34.8513L45.2259 3.64335C45.228 2.66334 46.0241 1.87038 47.0041 1.87222ZM64.4143 0.32415C66.2674 0.327626 67.7664 1.83261 67.7625 3.68562L67.697 34.8936C67.6931 36.7466 66.1878 38.2459 64.3348 38.2425L46.9279 38.2098C45.0748 38.2063 43.5758 36.7014 43.5797 34.8483L43.6452 3.64038C43.6491 1.78737 45.1544 0.288019 47.0074 0.291495L64.4143 0.32415Z" fill="black"/>
<path d="M67.7649 3.68123C67.7688 1.82821 66.2698 0.323232 64.4168 0.319756L47.0045 0.28709C45.1515 0.283614 43.6462 1.78296 43.6423 3.63598L43.5768 34.8524C43.5729 36.7054 45.0719 38.2104 46.9249 38.2139L64.3372 38.2465C66.1902 38.25 67.6955 36.7507 67.6994 34.8976L67.7649 3.68123Z" fill="white"/>
<path fill-rule="evenodd" clip-rule="evenodd" d="M47.0012 1.86782L64.4135 1.90048C65.3935 1.90232 66.1863 2.69826 66.1842 3.67826L66.1187 34.8947C66.1166 35.8747 65.3205 36.6676 64.3405 36.6658L46.9282 36.6331C45.9482 36.6313 45.1554 35.8354 45.1575 34.8554L45.223 3.63895C45.225 2.65894 46.0212 1.86598 47.0012 1.86782ZM64.4168 0.319756C66.2698 0.323232 67.7688 1.82821 67.7649 3.68123L67.6994 34.8976C67.6955 36.7507 66.1902 38.25 64.3372 38.2465L46.9249 38.2139C45.0719 38.2104 43.5729 36.7054 43.5768 34.8524L43.6423 3.63598C43.6462 1.78296 45.1515 0.283614 47.0045 0.28709L64.4168 0.319756Z" fill="#353535"/>
<path d="M60.9528 1.64229C60.9576 2.66309 60.1339 3.49404 59.1131 3.49828L52.238 3.52684C51.2172 3.53108 50.3859 2.707 50.3811 1.68621L60.9528 1.64229Z" fill="#353535"/>
</svg>
