<svg width="21" height="21" viewBox="0 0 21 21" fill="none" xmlns="http://www.w3.org/2000/svg">
<path d="M18.0998 0.0150146H2.73984C1.41504 0.0150146 0.339844 1.09021 0.339844 2.41501V17.775C0.339844 19.0998 1.41504 20.175 2.73984 20.175H18.0998C19.4246 20.175 20.4998 19.0998 20.4998 17.775V2.41501C20.4998 1.09021 19.4246 0.0150146 18.0998 0.0150146ZM16.5254 13.935L14.735 13.9302C14.735 13.9302 14.6966 13.935 14.6342 13.935C14.4902 13.935 14.1926 13.8966 13.8422 13.6566C13.2134 13.2198 12.6134 12.135 12.1382 12.135C12.1046 12.135 12.0758 12.1398 12.047 12.1494C11.6342 12.279 11.5094 12.6918 11.5094 13.1958C11.5094 13.3734 11.3846 13.455 11.0486 13.455H10.1222C9.08544 13.455 8.08224 13.431 6.95424 12.1974C5.29344 10.3782 3.73824 7.14301 3.73824 7.14301C3.73824 7.14301 3.65184 6.95581 3.74304 6.84541C3.82944 6.74461 4.03104 6.73501 4.10784 6.73501C4.12704 6.73501 4.13664 6.73501 4.13664 6.73501H6.05664C6.05664 6.73501 6.23424 6.76861 6.36384 6.86461C6.47424 6.94621 6.53184 7.09501 6.53184 7.09501C6.53184 7.09501 6.85824 7.72861 7.26624 8.44381C7.95264 9.62461 8.32224 10.0182 8.58624 10.0182C8.62944 10.0182 8.67264 10.0086 8.71584 9.98461C9.10944 9.76861 8.99424 8.02141 8.99424 8.02141C8.99424 8.02141 8.99904 7.38781 8.79264 7.10942C8.63424 6.88861 8.33184 6.82621 8.19744 6.80701C8.09184 6.79261 8.26464 6.54302 8.49504 6.42781C8.79264 6.28381 9.28704 6.25501 9.88224 6.25501H10.1702C10.7318 6.26461 10.7462 6.32221 10.967 6.37501C11.6294 6.53341 11.4038 7.15261 11.4038 8.63581C11.4038 9.11101 11.3174 9.77821 11.6582 10.0038C11.6822 10.0182 11.7158 10.0278 11.759 10.0278C11.9798 10.0278 12.455 9.74461 13.2134 8.46301C13.6358 7.73341 13.9622 7.00861 13.9622 7.00861C13.9622 7.00861 14.0342 6.87901 14.1446 6.81181C14.2502 6.74941 14.2502 6.74941 14.3894 6.74941H14.4038C14.5574 6.74941 16.0838 6.73501 16.4198 6.73501H16.4582C16.7798 6.73501 17.0726 6.73981 17.1254 6.93661C17.2022 7.23421 16.8902 7.76701 16.0694 8.87101C14.7158 10.6806 14.5622 10.5462 15.6854 11.5926C16.7606 12.591 16.9814 13.0758 17.0198 13.1382C17.4662 13.8774 16.5254 13.935 16.5254 13.935Z" fill="white"/>
</svg>
