<svg width="23" height="23" viewBox="0 0 23 23" fill="none" xmlns="http://www.w3.org/2000/svg">
<path d="M11.4199 0.0549316C17.5173 0.0549316 22.4599 4.99749 22.4599 11.0949C22.4599 17.1924 17.5173 22.1349 11.4199 22.1349C5.32244 22.1349 0.379883 17.1924 0.379883 11.0949C0.379883 4.99749 5.32244 0.0549316 11.4199 0.0549316ZM15.2282 15.5949C15.4312 14.9719 16.3826 8.76261 16.5002 7.53909C16.5357 7.16853 16.4186 6.92229 16.1892 6.81237C15.9117 6.67893 15.5008 6.74565 15.0242 6.91749C14.3704 7.15317 6.01268 10.7018 5.5298 10.9073C5.07188 11.1017 4.63892 11.3138 4.63892 11.621C4.63892 11.837 4.76708 11.9585 5.12036 12.0847C5.48804 12.2157 6.41396 12.4965 6.96068 12.6473C7.48724 12.7927 8.08676 12.6665 8.42276 12.4577C8.77892 12.2364 12.8892 9.48597 13.1844 9.24501C13.4791 9.00405 13.7143 9.31269 13.4733 9.55413C13.2324 9.79509 10.4109 12.5335 10.0389 12.9127C9.58724 13.373 9.90788 13.8501 10.2108 14.0412C10.5568 14.2591 13.0456 15.9285 13.4205 16.1964C13.7954 16.4642 14.1756 16.5857 14.5236 16.5857C14.8716 16.5857 15.0549 16.1273 15.2282 15.5949Z" fill="white"/>
</svg>
