<svg width="21" height="21" viewBox="0 0 21 21" fill="none" xmlns="http://www.w3.org/2000/svg">
<path d="M18.1799 0.0148926H2.81992C1.49656 0.0148926 0.419922 1.09153 0.419922 2.41489V17.7749C0.419922 19.0983 1.49656 20.1749 2.81992 20.1749H18.1799C19.5033 20.1749 20.5799 19.0983 20.5799 17.7749V2.41489C20.5799 1.09153 19.5033 0.0148926 18.1799 0.0148926ZM16.2628 8.80993C16.1538 8.82001 16.0434 8.82673 15.9316 8.82673C14.6726 8.82673 13.5662 8.17921 12.9225 7.20049C12.9225 9.76801 12.9225 12.6893 12.9225 12.7383C12.9225 14.9986 11.0898 16.8312 8.82952 16.8312C6.5692 16.8312 4.73656 14.9986 4.73656 12.7383C4.73656 10.4779 6.5692 8.64529 8.82952 8.64529C8.91496 8.64529 8.99848 8.65297 9.08248 8.65825V10.6752C8.99848 10.6651 8.91592 10.6498 8.82952 10.6498C7.6756 10.6498 6.74056 11.5848 6.74056 12.7387C6.74056 13.8927 7.6756 14.8277 8.82952 14.8277C9.98344 14.8277 11.0025 13.9186 11.0025 12.7647C11.0025 12.7191 11.0226 3.35953 11.0226 3.35953H12.9503C13.1318 5.08321 14.5233 6.44353 16.2628 6.56833V8.80993Z" fill="white"/>
</svg>
